<svg version="1.1" id="Layer_1" xmlns="http://www.w3.org/2000/svg" xmlns:xlink="http://www.w3.org/1999/xlink" x="0px" y="0px"
	 width="100%" viewBox="0 0 200 200" enable-background="new 0 0 200 200" xml:space="preserve">
<path fill="#FF474C" opacity="1.000000" stroke="none" 
	d="
M121.000000,201.000000 
	C107.979103,201.000000 94.958214,201.000000 81.808624,200.700226 
	C81.029541,199.946655 80.436058,199.236374 79.720230,199.077560 
	C69.014725,196.702362 58.909744,192.972534 49.475571,187.215210 
	C37.711334,180.035995 27.580597,171.208832 19.525791,160.013794 
	C11.438758,148.773956 5.991315,136.370041 2.930176,122.877281 
	C2.763661,122.143333 1.664840,121.620895 1.000000,121.000000 
	C1.000000,107.979103 1.000000,94.958214 1.299754,81.808655 
	C2.053338,81.029625 2.763667,80.436180 2.922519,79.720345 
	C5.298168,69.014969 9.027445,58.909771 14.784867,49.475525 
	C21.964209,37.711277 30.791307,27.580427 41.986347,19.525625 
	C53.226246,11.438548 65.630333,5.991173 79.123260,2.930290 
	C79.857040,2.763830 80.379288,1.664883 81.000000,1.000000 
	C94.020897,1.000000 107.041786,1.000000 120.191345,1.299756 
	C120.970169,2.053318 121.563110,2.761913 122.279076,2.922701 
	C132.971024,5.323827 143.100433,8.992891 152.514008,14.784497 
	C164.095093,21.909645 174.159515,30.525476 182.154037,41.602501 
	C190.368759,52.984615 195.948853,65.471710 199.069702,79.123642 
	C199.237518,79.857811 200.335190,80.379433 201.000000,81.000000 
	C201.000000,94.020897 201.000000,107.041786 200.702332,120.188995 
	C199.949554,120.964371 199.238251,121.555946 199.077805,122.271103 
	C196.678207,132.967361 192.982605,143.085602 187.219864,152.519928 
	C180.035446,164.281738 171.211853,174.415695 160.016479,182.472351 
	C148.776062,190.561462 136.370331,196.006104 122.877586,199.069794 
	C122.143486,199.236481 121.620995,200.335144 121.000000,201.000000 
M76.053864,53.638668 
	C65.827118,56.459076 55.600368,59.279488 44.981571,62.208019 
	C53.157978,75.712234 61.009380,88.837624 69.125572,101.797180 
	C69.805801,102.883339 72.457504,103.592346 73.870712,103.227432 
	C86.101181,100.069252 98.252022,96.603874 110.440590,93.281418 
	C113.180473,92.534554 115.975227,91.989014 118.744728,91.350792 
	C119.008827,91.976021 119.272926,92.601242 119.537025,93.226471 
	C115.865326,95.079918 112.372749,97.545265 108.491112,98.681511 
	C91.145622,103.758949 73.689140,108.457207 55.711323,113.448265 
	C63.973843,127.097557 71.906410,140.343460 80.089630,153.432663 
	C80.699226,154.407700 83.278709,154.903458 84.650322,154.534912 
	C100.540619,150.265091 116.390228,145.840668 132.218704,141.344910 
	C145.479736,137.578354 154.087280,127.150330 154.909912,114.109467 
	C155.717758,101.303101 148.577942,89.792816 136.233871,84.479218 
	C133.849686,83.452927 133.107529,82.428154 133.278900,79.751625 
	C134.689163,57.724400 115.978218,42.674850 94.626335,48.504326 
	C88.692062,50.124496 82.757599,51.743965 76.053864,53.638668 
z"/>
<path fill="#FFFAFA" opacity="1.000000" stroke="none" 
	d="
M76.438538,53.501213 
	C82.757599,51.743965 88.692062,50.124496 94.626335,48.504326 
	C115.978218,42.674850 134.689163,57.724400 133.278900,79.751625 
	C133.107529,82.428154 133.849686,83.452927 136.233871,84.479218 
	C148.577942,89.792816 155.717758,101.303101 154.909912,114.109467 
	C154.087280,127.150330 145.479736,137.578354 132.218704,141.344910 
	C116.390228,145.840668 100.540619,150.265091 84.650322,154.534912 
	C83.278709,154.903458 80.699226,154.407700 80.089630,153.432663 
	C71.906410,140.343460 63.973843,127.097557 55.711323,113.448265 
	C73.689140,108.457207 91.145622,103.758949 108.491112,98.681511 
	C112.372749,97.545265 115.865326,95.079918 119.537025,93.226471 
	C119.272926,92.601242 119.008827,91.976021 118.744728,91.350792 
	C115.975227,91.989014 113.180473,92.534554 110.440590,93.281418 
	C98.252022,96.603874 86.101181,100.069252 73.870712,103.227432 
	C72.457504,103.592346 69.805801,102.883339 69.125572,101.797180 
	C61.009380,88.837624 53.157978,75.712234 44.981571,62.208019 
	C55.600368,59.279488 65.827118,56.459076 76.438538,53.501213 
M142.242050,98.359390 
	C138.653015,95.598900 135.063995,92.838409 130.953735,89.677025 
	C124.865746,101.283493 115.359375,105.758217 104.373734,108.084763 
	C100.158508,108.977463 96.053154,110.386703 91.894287,111.548233 
	C83.998871,113.753334 76.100983,115.949562 67.808281,118.259750 
	C73.245972,127.280060 78.172157,135.748764 83.506020,143.952408 
	C84.234383,145.072662 87.184082,145.587494 88.787514,145.167969 
	C102.281006,141.637680 115.696655,137.810684 129.143036,134.099411 
	C145.868881,129.483002 151.990036,113.627655 142.242050,98.359390 
M57.729073,67.383781 
	C62.776051,75.957886 67.732178,84.588654 72.995880,93.027565 
	C73.590477,93.980827 76.083054,94.478569 77.419411,94.129753 
	C93.291962,89.986732 109.112061,85.642746 125.026031,81.329773 
	C128.540939,65.990250 114.529549,51.709641 99.077759,55.541260 
	C85.394684,58.934292 71.887581,63.036968 57.729073,67.383781 
M118.984406,91.556480 
	C119.178513,91.626106 119.372620,91.695724 119.566727,91.765350 
	C119.505180,91.565453 119.443634,91.365547 118.984406,91.556480 
z"/>
<path fill="#FF494E" opacity="1.000000" stroke="none" 
	d="
M142.471527,98.646439 
	C151.990036,113.627655 145.868881,129.483002 129.143036,134.099411 
	C115.696655,137.810684 102.281006,141.637680 88.787514,145.167969 
	C87.184082,145.587494 84.234383,145.072662 83.506020,143.952408 
	C78.172157,135.748764 73.245972,127.280060 67.808281,118.259750 
	C76.100983,115.949562 83.998871,113.753334 91.894287,111.548233 
	C96.053154,110.386703 100.158508,108.977463 104.373734,108.084763 
	C115.359375,105.758217 124.865746,101.283493 130.953735,89.677025 
	C135.063995,92.838409 138.653015,95.598900 142.471527,98.646439 
z"/>
<path fill="#FF494E" opacity="1.000000" stroke="none" 
	d="
M58.015934,67.105072 
	C71.887581,63.036968 85.394684,58.934292 99.077759,55.541260 
	C114.529549,51.709641 128.540939,65.990250 125.026031,81.329773 
	C109.112061,85.642746 93.291962,89.986732 77.419411,94.129753 
	C76.083054,94.478569 73.590477,93.980827 72.995880,93.027565 
	C67.732178,84.588654 62.776051,75.957886 58.015934,67.105072 
z"/>
<path fill="#FF474C" opacity="1.000000" stroke="none" 
	d="
M119.183243,91.361069 
	C119.443634,91.365547 119.505180,91.565453 119.566727,91.765350 
	C119.372620,91.695724 119.178513,91.626106 119.183243,91.361069 
z"/>
</svg>