<?xml version="1.0" encoding="utf-8"?>
<svg version="1.1" id="svg2" width="1066.6667" height="1066.6667" viewBox="0 0 1066.6667 1066.6667" xmlns="http://www.w3.org/2000/svg">
  <defs id="defs6">
    <linearGradient x1="0" y1="0" x2="1" y2="0" gradientUnits="userSpaceOnUse" gradientTransform="matrix(-182.0643,-311.83002,-311.83002,182.0643,465.36359,546.48767)" spreadMethod="pad" id="linearGradient32">
      <stop style="stop-opacity:1;stop-color:#00c7ff" offset="0" id="stop22"/>
      <stop style="stop-opacity:1;stop-color:#00c7ff" offset="0.043" id="stop24"/>
      <stop style="stop-opacity:1;stop-color:#5100d1" offset="0.6026" id="stop26"/>
      <stop style="stop-opacity:1;stop-color:#5100d1" offset="0.6564" id="stop28"/>
      <stop style="stop-opacity:1;stop-color:#0f1644" offset="1" id="stop30"/>
    </linearGradient>
  </defs>
  <g id="g8" transform="matrix(3.147806, 0, 0, -3.147806, -725.927551, 1792.26062)" style="">
    <g id="g10">
      <g id="g12">
        <g id="g18">
          <g id="g20">
            <path d="m 293.93,569.364 h -0.623 c -7.166,-0.173 -12.921,-5.95 -12.997,-13.142 v 0 -0.259 -122.571 c 0,-0.041 -0.023,-0.076 -0.023,-0.118 v 0 -0.258 c 0,-0.041 0.023,-0.076 0.023,-0.118 v 0 c 0.14,-7.23 5.982,-13.056 13.247,-13.08 v 0 h 0.076 118.126 c 12.533,0 24.593,-2.853 35.888,-8.458 v 0 c 0.058,-0.025 0.105,-0.059 0.162,-0.083 v 0 c 0.599,-0.245 1.251,-0.39 1.936,-0.39 v 0 c 1.186,0 2.227,0.468 3.093,1.143 v 0 c 0.232,0.204 0.465,0.404 0.697,0.609 v 0 c 5.261,4.687 10.027,10.001 13.375,14.653 v 0 c 0.541,0.755 0.738,1.618 0.576,2.493 v 0 c -0.169,0.858 -0.576,1.518 -1.198,1.898 v 0 c 0.006,0.01 0.012,0.019 0.017,0.028 v 0 c -0.319,0.189 -0.65,0.348 -0.976,0.531 v 0 c -1.401,0.806 -2.819,1.581 -4.255,2.317 v 0 c -0.86,0.441 -1.72,0.862 -2.586,1.279 v 0 c -0.959,0.455 -1.919,0.904 -2.889,1.331 v 0 c -1.576,0.701 -3.168,1.36 -4.773,1.984 v 0 c -0.215,0.085 -0.435,0.169 -0.657,0.251 v 0 c -2.045,0.783 -4.115,1.503 -6.208,2.159 v 0 c -0.005,0.003 -0.017,0.007 -0.029,0.01 v 0 -10e-4 c -10.37,3.248 -21.205,4.98 -32.173,4.98 v 0 h -99.415 -0.39 c -2.714,0.106 -4.888,2.298 -4.917,5.032 v 0 0.093 85.73 0.215 c 0.058,2.771 2.307,5.005 5.092,5.01 v 0 h 0.012 99.618 c 1.965,0 3.907,-0.145 5.79,-0.287 v 0 l 0.279,-0.02 c 42.141,-3.139 75.159,-38.683 75.159,-80.919 v 0 c 0,-10.84 -2.134,-21.397 -6.325,-31.38 v 0 c -1.192,-2.828 -2.552,-5.61 -4.04,-8.266 v 0 l -0.134,-0.206 c -5.266,-8.268 -11.427,-15.646 -18.408,-22.085 v 0 c -0.268,-0.246 -0.541,-0.483 -0.814,-0.72 v 0 l -0.547,-0.474 c -2.964,-2.399 -6.01,-4.546 -9.079,-6.405 v 0 c -12.654,-7.647 -27.14,-11.688 -41.881,-11.688 v 0 H 293.702 c -0.028,0 -0.052,0.016 -0.081,0.016 v 0 c -0.028,0 -0.052,-0.016 -0.081,-0.016 v 0 c -7.243,-0.049 -13.067,-5.86 -13.206,-13.078 v 0 c 0,-0.04 -0.024,-0.071 -0.024,-0.111 v 0 -0.258 c 0,-0.04 0.024,-0.072 0.024,-0.111 v 0 V 244.1 c 0,-0.046 -0.024,-0.085 -0.024,-0.131 v 0 c 0,-0.044 0.024,-0.082 0.024,-0.128 v 0 c 0.075,-7.301 5.987,-13.205 13.311,-13.205 v 0 h 118.114 c 59.528,0 107.954,48.431 107.954,107.958 v 0 c 0,12.82 -2.272,25.343 -6.737,37.337 v 0 c -0.564,1.571 -1.749,3.207 -4.377,3.601 v 0 c -1.43,0.062 -2.732,0.103 -4.417,-1.735 v 0 c -3.279,-3.589 -6.802,-6.997 -10.667,-10.118 v 0 l -1.947,-1.569 -0.616,-0.495 c -1.14,-0.953 -1.582,-2.059 -1.395,-3.471 v 0 c 0.052,-0.373 0.133,-0.707 0.209,-1.059 v 0 c 0.105,-0.355 0.181,-0.705 0.273,-1.061 v 0 c 0.337,-1.22 0.674,-2.443 0.942,-3.64 v 0 l 0.052,-0.206 c 0.378,-1.72 0.704,-3.468 0.971,-5.198 v 0 l 0.116,-0.687 c 0.215,-1.519 0.401,-3.147 0.541,-4.83 v 0 l 0.046,-0.413 c 0.018,-0.213 0.047,-0.425 0.058,-0.64 v 0 c 0.152,-2.08 0.222,-3.983 0.222,-5.816 v 0 c 0,-44.787 -36.44,-81.226 -81.228,-81.226 v 0 H 312.234 312.1 c -2.767,0.039 -4.993,2.264 -5.04,5.03 v 0 0.151 85.73 0.123 c 0.035,2.779 2.279,5.019 5.057,5.046 v 0 h 0.093 99.549 c 2.517,0 5.18,0.11 8.15,0.331 v 0 l 0.953,0.066 c 2.441,0.202 4.941,0.508 7.638,0.929 v 0 l 1.156,0.184 c 2.511,0.419 5.017,0.932 7.458,1.52 v 0 l 0.907,0.229 c 2.639,0.663 5.18,1.397 7.545,2.177 v 0 l 0.215,0.075 c 5.196,1.73 10.317,3.889 15.212,6.41 v 0 c 2.406,1.237 4.801,2.589 7.167,4.045 v 0 l 0.197,0.121 c 2.338,1.449 4.622,2.979 6.761,4.54 v 0 l 6.214,4.89 c 7.649,6.176 14.136,13.332 19.379,21.363 v 0 l 0.192,0.226 c 0.587,0.869 1.198,1.866 1.814,2.862 v 0 l 0.627,1.014 c 10.707,17.16 16.369,36.861 16.369,56.976 v 0 c 0,59.528 -48.426,107.958 -107.954,107.958 v 0 z" style="fill:url(#linearGradient32);stroke:none" id="path34"/>
          </g>
        </g>
      </g>
    </g>
  </g>
</svg>