<svg width="36" height="36" viewBox="0 0 36 36" fill="none" xmlns="http://www.w3.org/2000/svg">
<path d="M18 36C27.9411 36 36 27.9411 36 18C36 8.05887 27.9411 0 18 0C8.05887 0 0 8.05887 0 18C0 27.9411 8.05887 36 18 36Z" fill="#F5F0FD"/>
<path d="M23.2037 21.888L28.2972 18.9481C28.5691 18.7937 28.7308 18.4997 28.7308 18.191V12.3111C28.7308 12.0024 28.5618 11.7084 28.2972 11.554L23.2037 8.61405C22.9317 8.4597 22.601 8.4597 22.329 8.61405L17.2355 11.554C16.9636 11.7084 16.8019 12.0024 16.8019 12.3111V22.8215L13.2298 24.8795L9.65775 22.8215V18.6982L13.2298 16.6328L15.5891 17.9926V15.229L13.6708 14.1192C13.5385 14.0457 13.3842 14.0016 13.2372 14.0016C13.0902 14.0016 12.9358 14.0457 12.8035 14.1192L7.71001 17.0591C7.43807 17.2135 7.27637 17.5075 7.27637 17.8162V23.6961C7.27637 24.0048 7.44542 24.2988 7.71001 24.4532L12.8035 27.3931C13.0755 27.5475 13.4062 27.5475 13.6782 27.3931L18.7717 24.4532C19.0436 24.2988 19.2053 24.0048 19.2053 23.6961V13.1857L19.2715 13.149L22.7774 11.1204L26.3495 13.1857V17.309L22.7774 19.367L20.4254 18.0073V20.7709L22.3437 21.8733C22.601 22.0424 22.9391 22.0424 23.2037 21.888Z" fill="url(#paint0_linear_1512_5501)"/>
<defs>
<linearGradient id="paint0_linear_1512_5501" x1="9.0918" y1="24.5017" x2="27.546" y2="11.0454" gradientUnits="userSpaceOnUse">
<stop stop-color="#A726C1"/>
<stop offset="0.88" stop-color="#803BDF"/>
<stop offset="1" stop-color="#7B3FE4"/>
</linearGradient>
</defs>
</svg>
